<svg preserveAspectRatio="none" width="100%" height="100%" overflow="visible" style="display: block;" viewBox="0 0 324.68 233.908" fill="none" xmlns="http://www.w3.org/2000/svg" xmlns:xlink="http://www.w3.org/1999/xlink">
<g id="deco">
<path d="M288.558 1.05355L209.037 111.538L324.403 112.184L324.54 113.164L209.986 146.541L306.778 174.496L306.622 175.475L211.211 172.204L228.955 208.62L229.607 209.959L228.279 209.285L165.895 177.626L144.407 230.658L143.787 232.188L143.454 230.57L132.787 178.704L77.91 229.957L77.1024 229.412L100.314 169.098L0.536967 190.415L0.216655 189.474L96.7557 143.169L29.6835 113.14L29.8856 112.184L100.066 111.845L80.5594 58.076L79.9383 56.3631L81.3465 57.5194L132.067 99.1317L136.929 66.868L137.095 65.7664L137.807 66.6219L154.662 86.8485L184.569 34.8514L185.5 35.1522L179.559 92.5184L287.828 0.380697L288.558 1.05355Z" fill="var(--fill-0, white)"/>
<path d="M288.558 1.05355L209.037 111.538L324.403 112.184L324.54 113.164L209.986 146.541L306.778 174.496L306.622 175.475L211.211 172.204L228.955 208.62L229.607 209.959L228.279 209.285L165.895 177.626L144.407 230.658L143.787 232.188L143.454 230.57L132.787 178.704L77.91 229.957L77.1024 229.412L100.314 169.098L0.536967 190.415L0.216655 189.474L96.7557 143.169L29.6835 113.14L29.8856 112.184L100.066 111.845L80.5594 58.076L79.9383 56.3631L81.3465 57.5194L132.067 99.1317L136.929 66.868L137.095 65.7664L137.807 66.6219L154.662 86.8485L184.569 34.8514L185.5 35.1522L179.559 92.5184L287.828 0.380697L288.558 1.05355Z" fill="url(#pattern0_445_3703)" fill-opacity="0.2"/>
<path d="M288.558 1.05355L209.037 111.538L324.403 112.184L324.54 113.164L209.986 146.541L306.778 174.496L306.622 175.475L211.211 172.204L228.955 208.62L229.607 209.959L228.279 209.285L165.895 177.626L144.407 230.658L143.787 232.188L143.454 230.57L132.787 178.704L77.91 229.957L77.1024 229.412L100.314 169.098L0.536967 190.415L0.216655 189.474L96.7557 143.169L29.6835 113.14L29.8856 112.184L100.066 111.845L80.5594 58.076L79.9383 56.3631L81.3465 57.5194L132.067 99.1317L136.929 66.868L137.095 65.7664L137.807 66.6219L154.662 86.8485L184.569 34.8514L185.5 35.1522L179.559 92.5184L287.828 0.380697L288.558 1.05355Z" stroke="var(--stroke-0, #CBE3FF)"/>
</g>
<defs>
<pattern id="pattern0_445_3703" patternUnits="userSpaceOnUse" patternTransform="matrix(12.8 0 0 25.6 159.373 112.416)" preserveAspectRatio="none" viewBox="0.391541 0 32 64" width="1" height="1">
<use xlink:href="#pattern0_445_3703_inner" transform="translate(-32 0)"/>
<g id="pattern0_445_3703_inner">
<path id="Star 9" d="M8 0L9.79611 5.52786H15.6085L10.9062 8.94427L12.7023 14.4721L8 11.0557L3.29772 14.4721L5.09383 8.94427L0.391548 5.52786H6.20389L8 0Z" fill="var(--fill-0, #5FA6FF)"/>
</g>
<use xlink:href="#pattern0_445_3703_inner" transform="translate(-16 32)"/>
<use xlink:href="#pattern0_445_3703_inner" transform="translate(16 32)"/>
</pattern></defs>
</svg>
