<svg preserveAspectRatio="none" width="100%" height="100%" overflow="visible" style="display: block;" viewBox="0 0 435 153" fill="none" xmlns="http://www.w3.org/2000/svg">
<path id="Vector 146" d="M0.500135 4.23182C1.90113 3.77045 3.30212 3.30908 8.80049 2.4924C14.2989 1.67573 23.8521 0.517742 44.6454 0.500196C65.4386 0.482651 97.1823 1.64064 124.2 4.09899C151.218 6.55735 172.549 10.281 189.915 14.3646C207.282 18.4481 220.038 22.7788 233.719 28.6401C247.4 34.5014 261.619 41.7619 272.237 48.3134C282.855 54.8648 289.44 60.487 294.288 65.2937C299.135 70.1004 302.045 73.9212 304.37 77.8309C308.841 85.351 310.576 92.2514 311.45 97.7215C312.372 103.491 311.658 110.466 310.571 117.177C309.795 121.967 306.885 124.829 304.549 126.92C302.814 128.474 300.092 128.793 296.9 128.85C293.627 128.909 291.596 127.086 290.792 125.799C289.876 124.331 290.018 122.52 290.181 120.999C290.598 117.114 295.757 114.156 303.781 110.251C309.284 107.573 318.5 107.123 329.3 106.535C334.474 106.254 339.049 106.537 347.117 108.013C355.186 109.489 366.615 112.285 376.849 115.694C387.083 119.104 395.775 123.043 402.233 126.288C408.691 129.533 412.651 131.964 416.95 135.255C425.768 142.621 431.5 148.159 433.267 150.455C433.956 151.412 434.224 151.948 434.5 152.5" stroke="#2E8CFF" stroke-width="3" stroke-linecap="round"/>
</svg>
