<svg width="24" height="24" viewBox="0 0 24 24" fill="none" xmlns="http://www.w3.org/2000/svg">
<path d="M5.95999 17.3479C6.81893 16.7106 7.75468 16.2072 8.76723 15.8379C9.77961 15.4687 10.8572 15.2841 11.9999 15.2841C13.1426 15.2841 14.2202 15.4687 15.2326 15.8379C16.2451 16.2072 17.1809 16.7106 18.0398 17.3479C18.668 16.6573 19.1658 15.858 19.5331 14.9499C19.9004 14.0418 20.0841 13.0584 20.0841 11.9999C20.0841 9.7599 19.2967 7.85253 17.722 6.2778C16.1473 4.70306 14.2399 3.91569 11.9999 3.91569C9.7599 3.91569 7.85253 4.70306 6.2778 6.2778C4.70306 7.85253 3.91569 9.7599 3.91569 11.9999C3.91569 13.0584 4.09935 14.0418 4.46668 14.9499C4.83401 15.858 5.33178 16.6573 5.95999 17.3479ZM9.66609 11.8074C9.03249 11.174 8.71569 10.396 8.71569 9.47359C8.71569 8.55114 9.03249 7.77321 9.66609 7.13978C10.2995 6.50618 11.0775 6.18938 11.9999 6.18938C12.9223 6.18938 13.7003 6.50618 14.3337 7.13978C14.9673 7.77321 15.2841 8.55114 15.2841 9.47359C15.2841 10.396 14.9673 11.174 14.3337 11.8074C13.7003 12.441 12.9223 12.7578 11.9999 12.7578C11.0775 12.7578 10.2995 12.441 9.66609 11.8074ZM11.9999 21.5999C10.6668 21.5999 9.41632 21.3492 8.24832 20.8478C7.08032 20.3464 6.06432 19.6637 5.20032 18.7995C4.33616 17.9355 3.65338 16.9195 3.15199 15.7515C2.6506 14.5835 2.3999 13.333 2.3999 11.9999C2.3999 10.6668 2.6506 9.41632 3.15199 8.24832C3.65338 7.08032 4.33616 6.06432 5.20032 5.20032C6.06432 4.33615 7.08032 3.65338 8.24832 3.15199C9.41632 2.6506 10.6668 2.3999 11.9999 2.3999C13.333 2.3999 14.5835 2.6506 15.7515 3.15199C16.9195 3.65338 17.9355 4.33615 18.7995 5.20032C19.6637 6.06432 20.3464 7.08032 20.8478 8.24832C21.3492 9.41632 21.5999 10.6668 21.5999 11.9999C21.5999 13.333 21.3492 14.5835 20.8478 15.7515C20.3464 16.9195 19.6637 17.9355 18.7995 18.7995C17.9355 19.6637 16.9195 20.3464 15.7515 20.8478C14.5835 21.3492 13.333 21.5999 11.9999 21.5999Z" fill="currentColor"/>
</svg>
