<svg width="16" height="16" viewBox="0 0 24 24" fill="none" xmlns="http://www.w3.org/2000/svg">
  <path d="M12 9C10.4 9 8.85 9.25 7.4 9.72V12.82C7.4 13.23 7.16 13.6 6.8 13.78C5.75 14.3 4.81 15 4 15.83C3.8 16.03 3.53 16.14 3.25 16.14C2.97 16.14 2.7 16.03 2.5 15.83L0.29 13.62C0.1 13.43 0 13.18 0 12.92C0 12.66 0.1 12.41 0.29 12.22C3.34 9.27 7.46 7.5 12 7.5C16.54 7.5 20.66 9.27 23.71 12.22C23.9 12.41 24 12.66 24 12.92C24 13.18 23.9 13.43 23.71 13.62L21.5 15.83C21.3 16.03 21.03 16.14 20.75 16.14C20.47 16.14 20.2 16.03 20 15.83C19.19 15 18.25 14.3 17.2 13.78C16.84 13.6 16.6 13.23 16.6 12.82V9.72C15.15 9.25 13.6 9 12 9Z" fill="currentColor"/>
</svg>
