<svg width="20" height="20" viewBox="0 0 20 20" fill="none" xmlns="http://www.w3.org/2000/svg">
<path d="M16.0475 17C14.5479 17 13.0223 16.6396 11.4704 15.9187C9.91878 15.198 8.48008 14.1758 7.15437 12.8522C5.83441 11.5286 4.81203 10.0879 4.08722 8.53011C3.36241 6.97234 3 5.44598 3 3.95103V3H7.24807L8.05573 6.34297L5.53218 8.79131C5.91157 9.42872 6.30543 10.021 6.71377 10.5682C7.12225 11.1155 7.54343 11.6086 7.97731 12.0476C8.41355 12.4945 8.89669 12.9158 9.42671 13.3116C9.95658 13.7075 10.5669 14.1095 11.2576 14.5178L13.788 12.0153L17 12.6923V17H16.0475Z" fill="#F559AF"/>
</svg>
