<svg width="24" height="24" viewBox="0 0 24 24" fill="none" xmlns="http://www.w3.org/2000/svg">
<path d="M8.31029 15.6899L13.9725 13.9725L15.6899 8.31029L10.0276 10.0276L8.31029 15.6899ZM11.9981 13.1564C11.6764 13.1564 11.4036 13.0438 11.1798 12.8184C10.9558 12.5933 10.8438 12.3198 10.8438 11.9981C10.8438 11.6764 10.9564 11.4036 11.1818 11.1798C11.4069 10.9558 11.6804 10.8438 12.0021 10.8438C12.3238 10.8438 12.5966 10.9564 12.8204 11.1818C13.0444 11.4069 13.1564 11.6804 13.1564 12.0021C13.1564 12.3238 13.0438 12.5966 12.8184 12.8204C12.5933 13.0444 12.3198 13.1564 11.9981 13.1564ZM12.0016 20.4001C10.8398 20.4001 9.74772 20.1796 8.72542 19.7387C7.70313 19.2978 6.81391 18.6994 6.05776 17.9435C5.30161 17.1877 4.70293 16.2988 4.26171 15.277C3.82063 14.2551 3.6001 13.1634 3.6001 12.0016C3.6001 10.8398 3.82056 9.74772 4.26149 8.72542C4.70241 7.70313 5.3008 6.81391 6.05666 6.05776C6.81251 5.30161 7.70136 4.70293 8.72321 4.26171C9.74507 3.82063 10.8368 3.6001 11.9985 3.6001C13.1604 3.6001 14.2525 3.82056 15.2748 4.26149C16.2971 4.70241 17.1863 5.3008 17.9424 6.05666C18.6986 6.81251 19.2973 7.70136 19.7385 8.72321C20.1796 9.74507 20.4001 10.8368 20.4001 11.9985C20.4001 13.1604 20.1796 14.2525 19.7387 15.2748C19.2978 16.2971 18.6994 17.1863 17.9435 17.9424C17.1877 18.6986 16.2988 19.2973 15.277 19.7385C14.2551 20.1796 13.1634 20.4001 12.0016 20.4001Z" fill="currentColor"/>
</svg>
