<svg width="28" height="28" viewBox="0 0 28 28" fill="none" xmlns="http://www.w3.org/2000/svg">
<mask id="mask0_181_1594" style="mask-type:alpha" maskUnits="userSpaceOnUse" x="0" y="0" width="28" height="28">
<rect width="28" height="28" fill="#D9D9D9"/>
</mask>
<g mask="url(#mask0_181_1594)">
<path d="M5.25 22.0318V20.282H7.35904V11.5767C7.35904 10.0077 7.84331 8.62043 8.81183 7.41488C9.78017 6.20932 11.0234 5.43825 12.5417 5.10167V2.9165H15.4583V5.10167C16.9766 5.43825 18.2198 6.20932 19.1882 7.41488C20.1567 8.62043 20.641 10.0077 20.641 11.5767V20.282H22.75V22.0318H5.25ZM13.998 25.3075C13.4175 25.3075 12.9213 25.101 12.5093 24.688C12.0971 24.275 11.891 23.7785 11.891 23.1984H16.109C16.109 23.7804 15.9023 24.2774 15.489 24.6894C15.0756 25.1014 14.5786 25.3075 13.998 25.3075Z" fill="#7B7D88"/>
</g>
</svg>
