<svg width="24" height="24" viewBox="0 0 24 24" fill="none" xmlns="http://www.w3.org/2000/svg">
  <mask id="mask0" style="mask-type:alpha" maskUnits="userSpaceOnUse" x="0" y="0" width="24" height="24">
    <rect width="24" height="24" fill="#D9D9D9"/>
  </mask>
  <g mask="url(#mask0)">
    <path d="M19.9 21C17.9167 21 15.9167 20.5375 13.9 19.6125C11.8833 18.6875 10.025 17.375 8.325 15.675C6.625 13.975 5.3125 12.1167 4.3875 10.1C3.4625 8.08333 3 6.08333 3 4.1C3 3.78883 3.10558 3.52775 3.31675 3.31675C3.52775 3.10558 3.78883 3 4.1 3H7.78325C8.01658 3 8.21942 3.08192 8.39175 3.24575C8.56392 3.40975 8.67775 3.61117 8.73325 3.85L9.4 7.11675C9.43333 7.36108 9.42775 7.57775 9.38325 7.76675C9.33892 7.95558 9.25008 8.11667 9.11675 8.25L6.64175 10.75C7.04175 11.4445 7.47925 12.0987 7.95425 12.7125C8.42925 13.3263 8.95283 13.9111 9.525 14.4668C10.1083 15.0611 10.7223 15.6069 11.3668 16.1043C12.0111 16.6014 12.6888 17.0444 13.4 17.4333L15.7668 15.0168C15.9278 14.8444 16.1208 14.7236 16.3458 14.6543C16.5708 14.5848 16.7944 14.5667 17.0168 14.6L20.15 15.2668C20.3945 15.3334 20.5973 15.4626 20.7583 15.6543C20.9194 15.8459 21 16.0612 21 16.3V19.9C21 20.2112 20.8944 20.4723 20.6833 20.6833C20.4723 20.8944 20.2112 21 19.9 21Z" fill="currentColor"/>
  </g>
</svg>
