<svg width="20" height="20" viewBox="0 0 20 20" fill="none" xmlns="http://www.w3.org/2000/svg">
<path d="M11.2911 8.25316C11.6456 7.89873 11.8228 7.46835 11.8228 6.96203C11.8228 6.4557 11.6456 6.02532 11.2911 5.67089C10.9367 5.31646 10.5063 5.13924 10 5.13924C9.49367 5.13924 9.06329 5.31646 8.70886 5.67089C8.35443 6.02532 8.17722 6.4557 8.17722 6.96203C8.17722 7.46835 8.35443 7.89873 8.70886 8.25316C9.06329 8.60759 9.49367 8.78481 10 8.78481C10.5063 8.78481 10.9367 8.60759 11.2911 8.25316ZM5.84025 18V16.6835H9.34177V13.2132C8.6135 13.1365 7.93873 12.8649 7.31747 12.3982C6.6962 11.9316 6.25249 11.3581 5.98633 10.6777C4.85165 10.5388 3.90363 10.0682 3.14228 9.26582C2.38076 8.46346 2 7.50987 2 6.40506V4.43038H5.47038V2H14.5296V4.43038H18V6.35443C18 7.45924 17.6192 8.42127 16.8577 9.24051C16.0964 10.0597 15.1484 10.5388 14.0137 10.6777C13.7475 11.3581 13.3038 11.9316 12.6825 12.3982C12.0613 12.8649 11.3865 13.1365 10.6582 13.2132V16.6835H14.1597V18H5.84025ZM5.47038 9.14709V5.74684H3.31646V6.35443C3.31646 7.04388 3.51249 7.63882 3.90456 8.13924C4.29662 8.63966 4.81856 8.97561 5.47038 9.14709ZM14.5296 9.14709C15.1814 8.97561 15.7034 8.63966 16.0954 8.13924C16.4875 7.63882 16.6835 7.04388 16.6835 6.35443V5.74684H14.5296V9.14709Z" fill="#2E8CFF"/>
</svg>
